<svg width="80px" height="80px" viewBox="0 0 1.5 1.5" version="1.1" id="cross" xmlns="http://www.w3.org/2000/svg"><path d="M0.264 0.127 0.75 0.613l0.484 -0.484A0.092 0.092 0 0 1 1.3 0.1a0.1 0.1 0 0 1 0.1 0.1 0.09 0.09 0 0 1 -0.027 0.066L0.884 0.75l0.489 0.489A0.09 0.09 0 0 1 1.4 1.3a0.1 0.1 0 0 1 -0.1 0.1 0.092 0.092 0 0 1 -0.069 -0.027L0.75 0.887l-0.485 0.485A0.092 0.092 0 0 1 0.2 1.4a0.1 0.1 0 0 1 -0.1 -0.1 0.09 0.09 0 0 1 0.027 -0.066L0.616 0.75 0.127 0.261A0.09 0.09 0 0 1 0.1 0.2a0.1 0.1 0 0 1 0.1 -0.1c0.024 0 0.047 0.01 0.064 0.027"/></svg>