<svg fill="#FFFFFF" width="80px" height="80px" viewBox="0 0 2.4 2.4" id="home" data-name="Flat color" xmlns="http://www.w3.org/2000/svg" class="icon flat-color"><path id="secondary" x="8" y="13" width="8" height="9" style="fill: rgb(255, 255, 255);" d="M0.8 1.3H1.6V2.2H0.8V1.3z"/><path id="primary" d="M2.171 1.271a0.1 0.1 0 0 1 -0.142 0l-0.029 -0.029v0.788a0.177 0.177 0 0 1 -0.183 0.17H1.6a0.1 0.1 0 0 1 -0.1 -0.1v-0.59a0.1 0.1 0 0 0 -0.1 -0.1h-0.4a0.1 0.1 0 0 0 -0.1 0.1V2.1a0.1 0.1 0 0 1 -0.1 0.1H0.583A0.177 0.177 0 0 1 0.4 2.03v-0.788l-0.029 0.029a0.1 0.1 0 0 1 -0.142 0 0.1 0.1 0 0 1 0 -0.142l0.9 -0.9a0.1 0.1 0 0 1 0.142 0l0.9 0.9a0.1 0.1 0 0 1 0 0.142" style="fill: rgb(255, 255, 255);"/></svg>