<svg fill="#ffff" height="80px" width="80px" version="1.1" id="XMLID_275_" xmlns="http://www.w3.org/2000/svg" xmlns:xlink="http://www.w3.org/1999/xlink" viewBox="0 0 2.4 2.4" xml:space="preserve"><g id="language"><g><path d="M1.2 2.4C0.54 2.4 0 1.86 0 1.2S0.54 0 1.2 0s1.2 0.54 1.2 1.2 -0.54 1.2 -1.2 1.2m-0.25 -0.7c0.06 0.31 0.17 0.5 0.25 0.5s0.19 -0.19 0.25 -0.5zm0.71 0c-0.03 0.17 -0.08 0.33 -0.14 0.45 0.23 -0.08 0.43 -0.24 0.55 -0.45zM0.33 1.7c0.12 0.21 0.32 0.37 0.55 0.45 -0.06 -0.12 -0.11 -0.28 -0.14 -0.45zm1.36 -0.2h0.47c0.02 -0.09 0.04 -0.2 0.04 -0.3s-0.02 -0.21 -0.05 -0.3h-0.47c0.02 0.1 0.02 0.2 0.02 0.3s0 0.2 -0.01 0.3m-0.77 0h0.57c0.01 -0.09 0.02 -0.19 0.02 -0.3s-0.01 -0.21 -0.02 -0.3H0.92c-0.01 0.09 -0.02 0.19 -0.02 0.3s0.01 0.21 0.02 0.3m-0.67 0h0.47c-0.01 -0.1 -0.01 -0.2 -0.01 -0.3s0 -0.2 0.01 -0.3H0.25c-0.03 0.09 -0.05 0.2 -0.05 0.3s0.02 0.21 0.05 0.3m1.41 -0.8h0.41c-0.12 -0.21 -0.32 -0.37 -0.55 -0.45 0.06 0.12 0.11 0.28 0.14 0.45M0.95 0.7h0.51c-0.06 -0.31 -0.17 -0.5 -0.25 -0.5s-0.2 0.19 -0.26 0.5M0.33 0.7h0.41c0.03 -0.17 0.08 -0.33 0.14 -0.45 -0.23 0.08 -0.42 0.24 -0.55 0.45"/></g></g></svg>