<svg
  version="1.1"
  id="Layer_1"
  xmlns="http://www.w3.org/2000/svg"
  xmlns:xlink="http://www.w3.org/1999/xlink"
  x="0px"
  y="0px"
  viewBox="-10 -10 180 100"
  width="180"
  height="80"
  style="background: none;"
>
  <!-- Logo Icon -->
  <g transform="translate(1 1)">
    <path style="fill:#AAB1BA;" d="M41.197 52.139h32.542C72.383 53.495 71.027 54.851 71.027 57.563v13.559c0 2.712 1.356 4.068 2.712 5.424h-65.085c1.356 -1.356 2.712 -2.712 2.712 -5.424v-13.559c0 -2.712 -1.356 -4.068 -2.712 -5.424z"/>
    <path style="fill:#FF7474;" d="M56.112 22.308c5.288 0 9.491 4.203 9.491 9.491s-4.203 9.491 -9.491 9.491H54.756v5.424h-5.424V41.291c0 -2.847 2.441 -5.424 5.424 -5.424h1.356c2.305 0 4.068 -1.763 4.068 -4.068s-1.763 -4.068 -4.068 -4.068c-20.339 0 -28.475 1.356 -28.475 1.356 -16.271 1.356 -21.695 10.848 -27.119 20.339V0.614c5.424 9.491 10.848 18.983 27.119 20.339 0 0 8.136 1.356 28.475 1.356"/>
  </g>
  <path style="fill:#51565F;" d="M63.051 79.959c-0.407 0 -0.678 -0.271 -0.678 -0.678v-2.576c0 -0.407 0.271 -0.678 0.678 -0.678h9.22c-0.949 -1.085 -1.763 -2.576 -1.763 -4.746V57.721c0 -2.169 0.814 -3.661 1.763 -4.746H10.305c0.949 1.085 1.763 2.576 1.763 4.746v13.559c0 2.169 -0.814 3.661 -1.763 4.746h9.22c0.407 0 0.678 0.271 0.678 0.678v2.576c0 0.407 -0.271 0.678 -0.678 0.678s-0.678 -0.271 -0.678 -0.678v-1.898h-10.169c-0.271 0 -0.542 -0.136 -0.678 -0.407 -0.136 -0.271 0 -0.542 0.136 -0.678 1.356 -1.356 2.576 -2.576 2.576 -4.881v-13.559c0 -2.441 -1.22 -3.661 -2.576 -4.881 -0.136 -0.136 -0.271 -0.542 -0.136 -0.678 0.136 -0.271 0.407 -0.407 0.678 -0.407h31.864v-4.068H14.237c-0.407 0 -0.678 -0.271 -0.678 -0.678s0.271 -0.678 0.678 -0.678h54.237c0.407 0 0.678 0.271 0.678 0.678s-0.271 0.678 -0.678 0.678h-26.441v4.068h31.864c0.271 0 0.542 0.136 0.678 0.407 0.136 0.271 0 0.542 -0.136 0.678 -1.356 1.356 -2.576 2.576 -2.576 4.881v4.746h4.746c0.407 0 0.678 0.271 0.678 0.678v7.458h2.034c0.407 0 0.678 0.271 0.678 0.678s-0.271 0.678 -0.678 0.678h-2.712c-0.407 0 -0.678 -0.271 -0.678 -0.678v-7.458h-4.068v7.458c0 2.441 1.22 3.661 2.576 4.881 0.136 0.136 0.271 0.542 0.136 0.678 -0.136 0.136 -0.407 0.407 -0.678 0.407h-10.169v1.898c0 0.407 -0.271 0.678 -0.678 0.678"/>
  
  <!-- Text -->
  <text x="95" y="55" font-family="Poppins, sans-serif" font-size="30" font-weight="600" fill="#FF4B4B" letter-spacing="2">
    Dhun
  </text>
</svg>
