<svg version="1.1" id="Capa_1" xmlns="http://www.w3.org/2000/svg" xmlns:xlink="http://www.w3.org/1999/xlink" x="0px" y="0px" viewBox="0 0 80 80" style="enable-background:new 0 0 512 512;" xml:space="preserve" width="80" height="80"><path style="fill:#5B699C;" d="M78.433 0.881A3.603 3.603 0 0 0 75.563 0.036l-50.433 7.205c-1.775 0.254 -3.093 1.774 -3.093 3.566v42.236c-2.134 -1.243 -4.611 -1.959 -7.253 -1.959 -7.972 0 -14.458 6.486 -14.458 14.458S6.811 80 14.783 80s14.458 -6.486 14.458 -14.458V28.341l43.229 -6.175v23.672c-2.134 -1.243 -4.611 -1.959 -7.253 -1.959 -7.972 0 -14.458 6.486 -14.458 14.458s6.486 14.458 14.458 14.458 14.458 -6.486 14.458 -14.458V3.602a3.602 3.602 0 0 0 -1.242 -2.721"/><path style="fill:#2D4175;" d="M78.433 0.881A3.603 3.603 0 0 0 75.563 0.036L40 5.116v21.688l32.47 -4.638v23.672c-2.134 -1.243 -4.611 -1.959 -7.253 -1.959 -7.972 0 -14.458 6.486 -14.458 14.458s6.486 14.458 14.458 14.458 14.458 -6.486 14.458 -14.458V3.602c0 -1.044 -0.453 -2.037 -1.242 -2.721"/></svg>