<svg fill="#000000" width="80px" height="80px" viewBox="-0.4 -0.3 2.4 2.4" xmlns="http://www.w3.org/2000/svg" preserveAspectRatio="xMinYMin" class="jam jam-play"><path d="M1.382 0.952a0.098 0.098 0 0 0 -0.032 -0.136L0.357 0.213a0.103 0.103 0 0 0 -0.054 -0.015c-0.056 0 -0.101 0.044 -0.101 0.099V1.503c0 0.018 0.005 0.037 0.015 0.052 0.03 0.046 0.092 0.061 0.14 0.032l0.992 -0.603c0.013 -0.008 0.024 -0.019 0.033 -0.032zm0.075 0.2 -0.992 0.603c-0.143 0.087 -0.33 0.044 -0.419 -0.095A0.29 0.29 0 0 1 0 1.503V0.297C0 0.133 0.136 0 0.304 0c0.057 0 0.112 0.015 0.161 0.045l0.992 0.603c0.143 0.087 0.186 0.27 0.098 0.409 -0.025 0.039 -0.058 0.071 -0.098 0.095"/></svg>