<svg version="1.1" id="Layer_1" xmlns="http://www.w3.org/2000/svg" xmlns:xlink="http://www.w3.org/1999/xlink" x="0px" y="0px" viewBox="0 0 80 80" style="enable-background:new 0 0 512 512;" xml:space="preserve" width="80" height="80"><path d="M33.313 42.241a2.194 2.194 0 0 1 -1.199 -0.365 2.188 2.188 0 0 1 -0.328 -0.268 2.063 2.063 0 0 1 -0.268 -0.328 2.141 2.141 0 0 1 -0.199 -0.374c-0.054 -0.13 -0.095 -0.266 -0.123 -0.404a2.125 2.125 0 0 1 -0.043 -0.421 2.183 2.183 0 0 1 0.166 -0.828c0.054 -0.13 0.121 -0.255 0.199 -0.372a2.063 2.063 0 0 1 0.268 -0.328 2.138 2.138 0 0 1 0.702 -0.469c0.13 -0.054 0.266 -0.095 0.404 -0.123a2.141 2.141 0 0 1 0.845 0c0.136 0.028 0.272 0.069 0.404 0.123a2.188 2.188 0 0 1 0.702 0.469 2.188 2.188 0 0 1 0.467 0.7c0.054 0.13 0.095 0.266 0.123 0.404 0.028 0.14 0.041 0.283 0.041 0.423s-0.013 0.283 -0.041 0.421c-0.028 0.138 -0.069 0.275 -0.123 0.404a2.125 2.125 0 0 1 -0.199 0.374 2.188 2.188 0 0 1 -0.268 0.328 2.188 2.188 0 0 1 -0.331 0.268c-0.117 0.078 -0.242 0.145 -0.372 0.199 -0.132 0.054 -0.268 0.095 -0.404 0.123 -0.14 0.028 -0.283 0.043 -0.423 0.043"/><path d="M59.23 31.465a2.141 2.141 0 0 1 -0.825 -0.164 2.125 2.125 0 0 1 -0.374 -0.199 2.031 2.031 0 0 1 -0.328 -0.268c-0.402 -0.404 -0.633 -0.959 -0.633 -1.528s0.231 -1.126 0.633 -1.53a2.188 2.188 0 0 1 0.328 -0.268 2.194 2.194 0 0 1 0.778 -0.322 2.125 2.125 0 0 1 0.843 0c0.138 0.028 0.274 0.069 0.404 0.123 0.132 0.054 0.257 0.121 0.374 0.199a2.188 2.188 0 0 1 0.328 0.268c0.402 0.404 0.633 0.962 0.633 1.53 0 0.568 -0.231 1.124 -0.633 1.528a2.031 2.031 0 0 1 -0.328 0.268 2.141 2.141 0 0 1 -0.374 0.199c-0.13 0.054 -0.266 0.095 -0.404 0.123 -0.138 0.028 -0.281 0.041 -0.421 0.041"/><g><path style="fill:#7BFFCD;" cx="144.382" cy="429.342" r="68.828" d="M33.314 67.085A10.754 10.754 0 0 1 22.56 77.839A10.754 10.754 0 0 1 11.805 67.085A10.754 10.754 0 0 1 33.314 67.085z"/><path style="fill:#7BFFCD;" cx="367.626" cy="380.528" r="68.828" d="M68.196 59.458A10.754 10.754 0 0 1 57.442 70.212A10.754 10.754 0 0 1 46.687 59.458A10.754 10.754 0 0 1 68.196 59.458z"/></g><path style="fill:#FF5050;" points="157.892,117.958 157.892,215.019 436.451,110.888 436.451,13.825 " d="M24.671 18.431L24.671 33.597L68.195 17.326L68.195 2.16Z"/><path d="M69.427 0.385a2.163 2.163 0 0 0 -1.988 -0.248L23.914 16.407a2.161 2.161 0 0 0 -1.404 2.024v35.74c-7.099 0.027 -12.866 5.809 -12.866 12.914 0 7.121 5.794 12.915 12.915 12.915s12.915 -5.794 12.915 -12.915V46.561c0 -1.193 -0.967 -2.161 -2.161 -2.161s-2.161 0.968 -2.161 2.161v10.894a12.922 12.922 0 0 0 -4.321 -2.555V35.096l39.204 -14.655v29.386a12.922 12.922 0 0 0 -4.644 -2.665V35.788c0 -1.193 -0.967 -2.161 -2.161 -2.161s-2.161 0.968 -2.161 2.161v10.764c-6.95 0.198 -12.543 5.909 -12.543 12.905 0 7.121 5.794 12.915 12.915 12.915s12.915 -5.794 12.915 -12.915V2.16a2.161 2.161 0 0 0 -0.929 -1.775M31.153 67.085c0 4.739 -3.855 8.594 -8.594 8.594s-8.594 -3.855 -8.594 -8.594 3.855 -8.593 8.594 -8.593 8.594 3.855 8.594 8.593M26.831 30.483v-10.553l39.204 -14.655v10.553zm30.61 37.568c-4.739 0 -8.594 -3.855 -8.594 -8.594s3.855 -8.593 8.594 -8.593 8.594 3.855 8.594 8.593c0 4.739 -3.855 8.594 -8.594 8.594"/></svg>