<svg fill="#000000" width="80px" height="80px" viewBox="0 0 2.4 2.4" xmlns="http://www.w3.org/2000/svg"><path d="M1.243 0.41a0.1 0.1 0 0 0 -0.1 0.012L0.665 0.8H0.3a0.1 0.1 0 0 0 -0.1 0.1v0.6a0.1 0.1 0 0 0 0.1 0.1h0.365l0.473 0.378A0.1 0.1 0 0 0 1.2 2a0.09 0.09 0 0 0 0.043 -0.01A0.1 0.1 0 0 0 1.3 1.9V0.5a0.1 0.1 0 0 0 -0.057 -0.09M1.1 1.692l-0.338 -0.27A0.1 0.1 0 0 0 0.7 1.4H0.4v-0.4h0.3a0.1 0.1 0 0 0 0.062 -0.022L1.1 0.708Zm0.866 -1.058a0.1 0.1 0 0 0 -0.142 0.142 0.6 0.6 0 0 1 -0.038 0.884 0.1 0.1 0 0 0 0.064 0.176 0.1 0.1 0 0 0 0.064 -0.023 0.8 0.8 0 0 0 0.052 -1.179m-0.283 0.283a0.1 0.1 0 1 0 -0.142 0.142A0.2 0.2 0 0 1 1.6 1.2a0.2 0.2 0 0 1 -0.071 0.153 0.1 0.1 0 0 0 -0.013 0.141 0.1 0.1 0 0 0 0.141 0.012A0.4 0.4 0 0 0 1.8 1.2a0.406 0.406 0 0 0 -0.117 -0.283"/></svg>